<svg version="1.0" xmlns="http://www.w3.org/2000/svg"
 width="512" height="512" viewBox="120 60 260 260"
 preserveAspectRatio="xMidYMid meet">
 <style>
 path { fill: #10069F; }
 @media (prefers-color-scheme: dark) {
    path { fill: #FFFFF0;}
 }
 </style>
<g transform="translate(0,500) scale(0.1,-0.1)" >
<path d="M1700 4234 c-108 -29 -304 -156 -392 -254 -71 -79 -100 -141 -106
-225 -4 -62 -2 -72 17 -89 17 -16 26 -17 45 -8 19 8 25 21 30 66 11 88 59 170
156 268 102 104 182 148 268 148 66 0 105 -21 129 -70 22 -43 24 -197 5 -340
-22 -165 -32 -238 -42 -312 -6 -40 -15 -104 -20 -143 -6 -38 -14 -101 -20
-140 -47 -340 -52 -541 -14 -592 11 -15 33 -34 47 -41 23 -11 33 -10 71 7 98
43 198 186 508 731 118 206 245 425 282 485 38 61 75 120 83 133 22 35 13 66
-19 70 -23 3 -33 -5 -60 -43 -18 -26 -52 -83 -76 -128 -47 -89 -267 -487 -306
-552 -13 -22 -56 -96 -96 -165 -150 -256 -240 -380 -275 -380 -7 0 -15 12 -18
26 -5 25 6 194 18 269 3 22 10 67 15 100 5 33 18 116 29 185 93 580 104 704
76 814 -42 160 -164 226 -335 180z"/>
<path d="M3482 3480 c-93 -42 -230 -199 -409 -470 -91 -137 -119 -186 -213
-365 -29 -55 -56 -104 -60 -109 -14 -15 0 89 39 289 29 143 69 390 77 468 8
83 -12 144 -55 170 -38 22 -53 21 -102 -4 -114 -58 -212 -210 -491 -759 -192
-379 -300 -551 -391 -624 -35 -28 -46 -31 -100 -29 -34 1 -71 3 -82 5 -25 4
-31 -24 -10 -46 23 -23 131 -21 193 2 168 64 287 237 522 757 96 213 260 511
312 567 41 44 52 29 45 -62 -6 -70 -15 -132 -62 -395 -9 -49 -21 -117 -26
-150 -5 -33 -14 -85 -20 -115 -6 -30 -13 -108 -16 -173 -4 -104 -3 -120 12
-138 24 -25 86 -26 109 -1 9 10 59 104 112 208 104 203 178 335 257 454 156
234 337 432 337 367 0 -6 -18 -75 -40 -152 -137 -475 -201 -754 -202 -880 -1
-101 18 -160 66 -204 55 -52 208 -35 277 30 17 16 30 32 27 34 -3 3 -26 -4
-53 -16 -67 -30 -102 -19 -132 41 -32 63 -31 181 2 315 54 212 99 379 166 612
87 304 88 348 14 379 -44 18 -51 18 -103 -6z"/>
</g>
</svg>