<?xml version="1.0" standalone="no"?>
<!DOCTYPE svg PUBLIC "-//W3C//DTD SVG 20010904//EN"
 "http://www.w3.org/TR/2001/REC-SVG-20010904/DTD/svg10.dtd">
<svg version="1.0" xmlns="http://www.w3.org/2000/svg"
 width="500.000000pt" height="500.000000pt" viewBox="0 0 500.000000 500.000000"
 preserveAspectRatio="xMidYMid meet">

<g transform="translate(0.000000,500.000000) scale(0.100000,-0.100000)"
fill="#000000" stroke="none">
<path d="M1700 4234 c-108 -29 -304 -156 -392 -254 -71 -79 -100 -141 -106
-225 -4 -62 -2 -72 17 -89 17 -16 26 -17 45 -8 19 8 25 21 30 66 11 88 59 170
156 268 102 104 182 148 268 148 66 0 105 -21 129 -70 22 -43 24 -197 5 -340
-22 -165 -32 -238 -42 -312 -6 -40 -15 -104 -20 -143 -6 -38 -14 -101 -20
-140 -47 -340 -52 -541 -14 -592 11 -15 33 -34 47 -41 23 -11 33 -10 71 7 98
43 198 186 508 731 118 206 245 425 282 485 38 61 75 120 83 133 22 35 13 66
-19 70 -23 3 -33 -5 -60 -43 -18 -26 -52 -83 -76 -128 -47 -89 -267 -487 -306
-552 -13 -22 -56 -96 -96 -165 -150 -256 -240 -380 -275 -380 -7 0 -15 12 -18
26 -5 25 6 194 18 269 3 22 10 67 15 100 5 33 18 116 29 185 93 580 104 704
76 814 -42 160 -164 226 -335 180z"/>
<path d="M3482 3480 c-93 -42 -230 -199 -409 -470 -91 -137 -119 -186 -213
-365 -29 -55 -56 -104 -60 -109 -14 -15 0 89 39 289 29 143 69 390 77 468 8
83 -12 144 -55 170 -38 22 -53 21 -102 -4 -114 -58 -212 -210 -491 -759 -192
-379 -300 -551 -391 -624 -35 -28 -46 -31 -100 -29 -34 1 -71 3 -82 5 -25 4
-31 -24 -10 -46 23 -23 131 -21 193 2 168 64 287 237 522 757 96 213 260 511
312 567 41 44 52 29 45 -62 -6 -70 -15 -132 -62 -395 -9 -49 -21 -117 -26
-150 -5 -33 -14 -85 -20 -115 -6 -30 -13 -108 -16 -173 -4 -104 -3 -120 12
-138 24 -25 86 -26 109 -1 9 10 59 104 112 208 104 203 178 335 257 454 156
234 337 432 337 367 0 -6 -18 -75 -40 -152 -137 -475 -201 -754 -202 -880 -1
-101 18 -160 66 -204 55 -52 208 -35 277 30 17 16 30 32 27 34 -3 3 -26 -4
-53 -16 -67 -30 -102 -19 -132 41 -32 63 -31 181 2 315 54 212 99 379 166 612
87 304 88 348 14 379 -44 18 -51 18 -103 -6z"/>
<path d="M1980 1456 c0 -303 0 -304 22 -309 12 -3 25 -4 30 -1 4 3 8 142 8
310 l0 304 -30 0 -30 0 0 -304z"/>
<path d="M1768 1729 c-23 -13 -24 -65 -2 -73 32 -12 55 -6 66 19 9 21 8 28 -7
45 -20 22 -32 24 -57 9z"/>
<path d="M965 1535 c-16 -7 -41 -25 -55 -40 l-25 -27 -5 29 c-4 22 -11 29 -33
31 l-27 3 0 -190 0 -191 29 0 29 0 4 133 c3 88 8 139 18 153 20 32 63 54 103
54 84 0 97 -26 97 -203 0 -130 1 -135 22 -140 12 -3 25 -4 30 -1 4 3 8 73 8
156 0 172 -8 195 -75 228 -47 23 -77 24 -120 5z"/>
<path d="M1395 1538 c-42 -15 -85 -47 -85 -62 0 -8 7 -19 15 -26 11 -9 20 -8
43 9 69 49 137 47 161 -5 24 -52 17 -59 -69 -72 -129 -18 -180 -55 -180 -130
0 -37 6 -50 34 -78 30 -30 40 -34 86 -34 54 0 81 10 116 41 20 19 21 19 43
-12 18 -24 29 -30 54 -27 33 3 54 38 23 38 -35 0 -46 40 -46 170 0 113 -2 128
-20 148 -43 45 -114 62 -175 40z m143 -225 c5 -36 -26 -90 -63 -107 -67 -32
-125 -10 -125 48 0 53 54 86 135 83 43 -2 50 -5 53 -24z"/>
<path d="M2255 1538 c-54 -19 -75 -46 -75 -99 0 -58 20 -80 110 -117 43 -18
70 -36 79 -54 15 -25 14 -29 -8 -52 -32 -34 -85 -35 -134 -2 -35 24 -36 24
-53 5 -14 -16 -15 -21 -3 -35 56 -68 221 -54 258 21 35 72 0 127 -108 170 -92
37 -111 65 -69 105 26 24 58 26 100 4 28 -14 32 -14 46 0 14 14 14 18 2 30
-17 15 -75 36 -99 35 -9 0 -29 -5 -46 -11z"/>
<path d="M2694 1529 c-23 -11 -47 -31 -54 -44 -19 -35 -30 -31 -30 9 0 26 -5
36 -20 41 -11 3 -24 4 -29 0 -6 -3 -10 -123 -10 -295 l0 -290 35 0 34 0 0 126
0 125 36 -27 c49 -38 125 -44 181 -15 66 33 103 100 103 184 -1 90 -53 170
-129 196 -47 15 -69 13 -117 -10z m116 -55 c42 -25 61 -67 61 -130 0 -138
-126 -201 -218 -109 -31 31 -33 37 -33 102 0 76 12 103 64 134 38 23 89 24
126 3z"/>
<path d="M3136 1530 c-40 -20 -76 -48 -76 -59 0 -3 9 -12 21 -19 18 -12 24
-11 43 7 66 62 166 37 166 -42 0 -22 -5 -25 -85 -36 -93 -14 -141 -39 -163
-84 -19 -38 -7 -99 25 -128 21 -20 35 -24 91 -24 54 0 73 4 100 23 l33 24 20
-26 c25 -32 89 -38 89 -8 0 9 -10 22 -22 27 -22 10 -23 17 -28 151 -6 157 -9
165 -75 195 -51 24 -90 23 -139 -1z m154 -220 c0 -67 -53 -120 -120 -120 -35
0 -70 30 -70 61 0 55 51 88 138 89 51 0 52 0 52 -30z"/>
<path d="M3605 1538 c-78 -28 -135 -111 -135 -198 0 -71 43 -148 99 -177 56
-29 136 -31 190 -4 55 29 65 44 42 66 -19 16 -21 16 -48 -3 -99 -70 -213 -7
-213 117 0 67 24 112 71 137 39 19 111 15 138 -10 23 -21 50 -21 58 1 12 31
-83 84 -148 82 -13 0 -37 -5 -54 -11z"/>
<path d="M4025 1538 c-85 -30 -135 -103 -135 -198 0 -114 63 -188 168 -197 67
-6 113 6 157 41 28 23 29 26 13 42 -15 16 -18 15 -49 -7 -39 -27 -120 -32
-163 -9 -30 15 -66 76 -66 110 0 19 6 20 150 20 l150 0 0 33 c0 41 -30 106
-61 133 -45 40 -107 52 -164 32z m95 -54 c40 -16 70 -54 70 -89 0 -14 -16 -15
-117 -13 -112 3 -118 4 -115 23 5 33 36 68 73 81 45 16 42 16 89 -2z"/>
<path d="M1760 1341 c0 -105 4 -192 8 -195 5 -3 18 -2 30 1 22 5 22 9 22 194
l0 189 -30 0 -30 0 0 -189z"/>
</g>
</svg>
